<svg xmlns="http://www.w3.org/2000/svg" viewBox="0 0 24 24"><path fill="#F14919" d="M13.3 16.17c-2.92.56-5.8-.72-8.32-2.1-.03 1.02-.06 2.01-.06 3 3.2 1.4 6.75 2.07 10.2 1.53a6.07 6.07 0 0 0 3.23-1.46c1.22-1.2 1.1-3.5-.33-4.5H18c-2.25-1.85-5.34-2.1-7.8-3.55-.75-.48-.15-1.4.6-1.43 2.7-.45 5.37.63 7.89 1.5l.15-2.65c-3.15-1.14-6.57-1.88-9.9-1.35-1.2.3-2.4.68-3.25 1.56a2.95 2.95 0 0 0 .39 4.32c2.23 1.76 5.17 2.01 7.62 3.36.96.39.55 1.68-.4 1.77zm8.54 4.98-.94-1.32a10.31 10.31 0 0 1-4.08 2.91h-.02L17.8 24a11.74 11.74 0 0 0 4.05-2.85z"/><path fill="#F14919" d="M20.9 19.83c1.9-2.1 3.1-4.9 3.1-7.95C24 5.29 18.63 0 12 0S0 5.31 0 11.85c0 6.57 5.37 11.88 12 11.88 1.71 0 3.33-.35 4.8-.99l-.96-1.26c-1.2.45-2.49.72-3.84.72A10.4 10.4 0 0 1 1.55 11.85C1.55 6.15 6.22 1.53 12 1.53s10.46 4.65 10.46 10.35c0 2.55-.95 4.9-2.51 6.69l.94 1.26zM8.74 14.07h.01z"/></svg>