<svg xmlns="http://www.w3.org/2000/svg" width="200" height="200" class="icon" viewBox="0 0 1024 1024"><path fill="#3245DF" d="M184.68 538.76c111.18-23.87 96.03-156.74 92.7-185.78-5.44-44.77-58.1-123.02-129.6-116.83C57.8 244.23 44.65 374.2 44.65 374.2c-12.17 60.08 29.13 188.46 140.03 164.56zm118.07 231.1c-3.26 9.33-10.52 33.23-4.24 54.03 12.4 46.68 52.91 48.77 52.91 48.77h58.22V730.35h-62.33c-28.02 8.35-41.54 30.16-44.56 39.51zm88.28-453.9c61.4 0 111.03-70.66 111.03-158.04C502.06 70.64 452.43 0 391.03 0c-61.31 0-111.06 70.64-111.06 157.92 0 87.38 49.77 158.04 111.06 158.04zm264.47 10.45c82.07 10.66 134.84-76.93 145.33-143.31 10.7-66.3-42.25-143.29-100.35-156.53-58.22-13.35-130.91 79.9-137.54 140.7-7.92 74.33 10.63 148.6 92.56 159.14zm201.08 390.21s-126.97-98.24-201.1-204.41C555 355.66 412.27 419.37 364.51 498.99 317 578.6 242.9 628.95 232.38 642.28 221.7 655.4 79 732.45 110.68 873.15c31.68 140.61 142.95 137.94 142.95 137.94s82 8.07 177.12-13.22c95.17-21.1 177.1 5.26 177.1 5.26s222.28 74.43 283.1-68.85c60.75-143.34-34.37-217.66-34.37-217.66zM476.26 929.88H331.74c-62.4-12.45-87.26-55.03-90.4-62.29-3.07-7.38-20.8-41.6-11.42-99.84 26.96-87.26 103.87-93.52 103.87-93.52h76.92v-94.56l65.53 1v349.21zm269.15-1H579.1c-64.46-16.61-67.46-62.4-67.46-62.4v-183.9l67.46-1.1v165.28c4.11 17.64 26.01 20.83 26.01 20.83h68.53v-185h71.76v246.29zm235.4-490.99c0-31.76-26.38-127.4-124.23-127.4-98 0-111.1 90.26-111.1 154.07 0 60.89 5.14 145.89 126.88 143.2 121.79-2.7 108.45-137.95 108.45-169.87zm0 0"/></svg>